<svg class="" height="512" style="enable-background:new 0 0 512 512"
     version="1.1" viewBox="0 0 469.333 469.333" width="512" x="0" xml:space="preserve" xmlns="http://www.w3.org/2000/svg"
     xmlns:svgjs="http://svgjs.com/svgjs" xmlns:xlink="http://www.w3.org/1999/xlink" y="0"><g><path class="" d="M240.875 128h-23.104c-11.792 0-21.333 9.552-21.333 21.333s9.542 21.333 21.333 21.333h23.104c11.792 0 21.333-9.552 21.333-21.333S252.667 128 240.875 128zM298.667 170.667c0 11.781 9.542 21.333 21.333 21.333 11.792 0 21.333-9.552 21.333-21.333v-21.333c0-11.781-9.542-21.333-21.333-21.333h-21.333c-11.792 0-21.333 9.552-21.333 21.333s9.541 21.333 21.333 21.333zM320 207.115c-11.792 0-21.333 9.552-21.333 21.333v23.115c0 11.781 9.542 21.333 21.333 21.333 11.792 0 21.333-9.552 21.333-21.333v-23.115c0-11.781-9.541-21.333-21.333-21.333z" data-original="#000000" fill="#5472d4"></path><path
  class=""
  d="M352 320h-10.667v-10.667c0-11.781-9.542-21.333-21.333-21.333-11.792 0-21.333 9.552-21.333 21.333V320H149.333V170.667H160c11.792 0 21.333-9.552 21.333-21.333S171.792 128 160 128h-10.667v-10.667C149.333 105.552 139.792 96 128 96c-11.792 0-21.333 9.552-21.333 21.333V128h-96A10.66 10.66 0 0 0 0 138.667v320a10.66 10.66 0 0 0 10.667 10.667h320a10.66 10.66 0 0 0 10.667-10.667v-96H352c11.792 0 21.333-9.552 21.333-21.333S363.792 320 352 320zM448 298.667c-11.792 0-21.333 9.552-21.333 21.333-11.792 0-21.333 9.552-21.333 21.333s9.542 21.333 21.333 21.333H448c11.792 0 21.333-9.552 21.333-21.333V320c0-11.781-9.541-21.333-21.333-21.333zM448 85.333c-11.792 0-21.333 9.552-21.333 21.333v42.667c0 11.781 9.542 21.333 21.333 21.333 11.792 0 21.333-9.552 21.333-21.333v-42.667c0-11.781-9.541-21.333-21.333-21.333zM448 192c-11.792 0-21.333 9.552-21.333 21.333V256c0 11.781 9.542 21.333 21.333 21.333 11.792 0 21.333-9.552 21.333-21.333v-42.667c0-11.781-9.541-21.333-21.333-21.333zM448 0h-21.333c-11.792 0-21.333 9.552-21.333 21.333s9.542 21.333 21.333 21.333C426.667 54.448 436.208 64 448 64c11.792 0 21.333-9.552 21.333-21.333V21.333C469.333 9.552 459.792 0 448 0zM213.333 42.667H256c11.792 0 21.333-9.552 21.333-21.333S267.792 0 256 0h-42.667C201.542 0 192 9.552 192 21.333s9.542 21.334 21.333 21.334zM362.667 0H320c-11.792 0-21.333 9.552-21.333 21.333S308.208 42.667 320 42.667h42.667c11.792 0 21.333-9.552 21.333-21.333S374.458 0 362.667 0zM128 64c11.792 0 21.333-9.552 21.333-21.333 11.792 0 21.333-9.552 21.333-21.333S161.125 0 149.333 0H128c-11.792 0-21.333 9.552-21.333 21.333v21.333C106.667 54.448 116.208 64 128 64z" data-original="#000000" fill="#5472d4"></path></g></svg>
