<svg class="" height="512" style="enable-background:new 0 0 512 512"
     version="1.1" viewBox="0 0 682.667 682.667" width="512" x="0" xml:space="preserve"
     xmlns="http://www.w3.org/2000/svg"
     xmlns:svgjs="http://svgjs.com/svgjs" xmlns:xlink="http://www.w3.org/1999/xlink" y="0"><g><defs><clipPath clipPathUnits="userSpaceOnUse" id="a"><path d="M0 512h512V0H0Z" data-original="#5472d4" fill="#5472d4"></path></clipPath></defs><g
  clip-path="url(#a)" transform="matrix(1.33333 0 0 -1.33333 0 682.667)"><path class="" d="M0 0h-142v142c0 22.091-17.908 40-40 40h-220c-22.092 0-40-17.909-40-40V-78c0-22.091 17.908-40 40-40h142v-142c0-22.091 17.908-40 40-40H0c22.092 0 40 17.909 40 40v220C40-17.909 22.092 0 0 0Z" data-original="#5472d4" fill="none" stroke="#5472d4" stroke-dasharray="none" stroke-linecap="round" stroke-linejoin="round" stroke-miterlimit="10" stroke-opacity="" stroke-width="30" style="stroke-width:30;stroke-linecap:round;stroke-linejoin:round;stroke-miterlimit:10;stroke-dasharray:none;stroke-opacity:1" transform="translate(457 315)"></path></g></g></svg>
