<svg class="" height="512" style="enable-background:new 0 0 512 512"
     version="1.1" viewBox="0 0 682.667 682.667" width="512" x="0" xml:space="preserve"
     xmlns="http://www.w3.org/2000/svg"
     xmlns:svgjs="http://svgjs.com/svgjs" xmlns:xlink="http://www.w3.org/1999/xlink" y="0"><g><defs><clipPath clipPathUnits="userSpaceOnUse" id="a"><path d="M0 512h512V0H0Z" data-original="#A6A6A6" fill="#A6A6A6"></path></clipPath></defs><g
  clip-path="url(#a)" transform="matrix(1.33333 0 0 -1.33333 0 682.667)"><path class="" d="M0 0h-186.123c-10.459 0-18.937 8.479-18.937 18.937 0 10.459 8.478 18.937 18.937 18.937H0c10.459 0 18.937-8.478 18.937-18.937C18.937 8.479 10.459 0 0 0Z" data-original="#A6A6A6" fill="none" stroke="#A6A6A6" stroke-dasharray="none" stroke-linecap="round" stroke-linejoin="round" stroke-miterlimit="10" stroke-opacity="" stroke-width="15" style="stroke-width:15;stroke-linecap:round;stroke-linejoin:round;stroke-miterlimit:10;stroke-dasharray:none;stroke-opacity:1" transform="translate(349.062 7.5)"></path>
  <path class=""
        d="M0 0v-24.364c0-10.758 8.721-19.478 19.478-19.478h426.333c10.757 0 19.478 8.72 19.478 19.478V0z"
        data-original="#A6A6A6" fill="none" stroke="#A6A6A6" stroke-dasharray="none" stroke-linecap="round"
        stroke-linejoin="round" stroke-miterlimit="10" stroke-opacity="" stroke-width="15"
        style="stroke-width:15;stroke-linecap:round;stroke-linejoin:round;stroke-miterlimit:10;stroke-dasharray:none;stroke-opacity:1"
        transform="translate(23.355 146.568)"></path>
  <path class=""
        d="M0 0h60"
        data-original="#A6A6A6" fill="none" stroke="#BE055E" stroke-dasharray="none" stroke-linecap="round"
        stroke-linejoin="round" stroke-miterlimit="10" stroke-opacity="" stroke-width="15"
        style="stroke-width:15;stroke-linecap:round;stroke-linejoin:round;stroke-miterlimit:10;stroke-dasharray:none;stroke-opacity:1"
        transform="translate(368.101 371.582)"></path>
  <path class=""
        d="M0 0h60"
        data-original="#A6A6A6" fill="none" stroke="#BE055E" stroke-dasharray="none" stroke-linecap="round"
        stroke-linejoin="round" stroke-miterlimit="10" stroke-opacity="" stroke-width="15"
        style="stroke-width:15;stroke-linecap:round;stroke-linejoin:round;stroke-miterlimit:10;stroke-dasharray:none;stroke-opacity:1"
        transform="translate(368.101 333.605)"></path>
  <path class=""
        d="M0 0h60"
        data-original="#A6A6A6" fill="none" stroke="#BE055E" stroke-dasharray="none" stroke-linecap="round"
        stroke-linejoin="round" stroke-miterlimit="10" stroke-opacity="" stroke-width="15"
        style="stroke-width:15;stroke-linecap:round;stroke-linejoin:round;stroke-miterlimit:10;stroke-dasharray:none;stroke-opacity:1"
        transform="translate(368.101 295.628)"></path>
  <path class=""
        d="M0 0h60"
        data-original="#A6A6A6" fill="none" stroke="#BE055E" stroke-dasharray="none" stroke-linecap="round"
        stroke-linejoin="round" stroke-miterlimit="10" stroke-opacity="" stroke-width="15"
        style="stroke-width:15;stroke-linecap:round;stroke-linejoin:round;stroke-miterlimit:10;stroke-dasharray:none;stroke-opacity:1"
        transform="translate(368.101 257.651)"></path>
  <path class=""
        d="M0 0h60"
        data-original="#A6A6A6" fill="none" stroke="#BE055E" stroke-dasharray="none" stroke-linecap="round"
        stroke-linejoin="round" stroke-miterlimit="10" stroke-opacity="" stroke-width="15"
        style="stroke-width:15;stroke-linecap:round;stroke-linejoin:round;stroke-miterlimit:10;stroke-dasharray:none;stroke-opacity:1"
        transform="translate(368.101 219.675)"></path>
  <path class=""
        d="M0 0v-19.28"
        data-original="#A6A6A6" fill="none" stroke="#9A044C" stroke-dasharray="none" stroke-linecap="round"
        stroke-linejoin="round" stroke-miterlimit="10" stroke-opacity="" stroke-width="15"
        style="stroke-width:15;stroke-linecap:round;stroke-linejoin:round;stroke-miterlimit:10;stroke-dasharray:none;stroke-opacity:1"
        transform="translate(377.235 381.222)"></path>
  <path class=""
        d="M0 0v-19.28"
        data-original="#A6A6A6" fill="none" stroke="#9A044C" stroke-dasharray="none" stroke-linecap="round"
        stroke-linejoin="round" stroke-miterlimit="10" stroke-opacity="" stroke-width="15"
        style="stroke-width:15;stroke-linecap:round;stroke-linejoin:round;stroke-miterlimit:10;stroke-dasharray:none;stroke-opacity:1"
        transform="translate(402.248 343.245)"></path>
  <path class=""
        d="M0 0v-19.281"
        data-original="#A6A6A6" fill="none" stroke="#9A044C" stroke-dasharray="none" stroke-linecap="round"
        stroke-linejoin="round" stroke-miterlimit="10" stroke-opacity="" stroke-width="15"
        style="stroke-width:15;stroke-linecap:round;stroke-linejoin:round;stroke-miterlimit:10;stroke-dasharray:none;stroke-opacity:1"
        transform="translate(382.308 305.269)"></path>
  <path class=""
        d="M0 0v-19.28"
        data-original="#A6A6A6" fill="none" stroke="#9A044C" stroke-dasharray="none" stroke-linecap="round"
        stroke-linejoin="round" stroke-miterlimit="10" stroke-opacity="" stroke-width="15"
        style="stroke-width:15;stroke-linecap:round;stroke-linejoin:round;stroke-miterlimit:10;stroke-dasharray:none;stroke-opacity:1"
        transform="translate(422.248 267.291)"></path>
  <path class=""
        d="M0 0v-19.28"
        data-original="#A6A6A6" fill="none" stroke="#9A044C" stroke-dasharray="none" stroke-linecap="round"
        stroke-linejoin="round" stroke-miterlimit="10" stroke-opacity="" stroke-width="15"
        style="stroke-width:15;stroke-linecap:round;stroke-linejoin:round;stroke-miterlimit:10;stroke-dasharray:none;stroke-opacity:1"
        transform="translate(377.235 229.315)"></path>
  <path
    class=""
    d="M0 0h-202.534a5.609 5.609 0 0 0-5.609 5.609v27.793a5.609 5.609 0 0 0 5.609 5.609H0a5.609 5.609 0 0 0 5.609-5.609V5.609A5.609 5.609 0 0 0 0 0Z"
    data-original="#A6A6A6" fill="none" stroke="#9A044C" stroke-dasharray="none" stroke-linecap="round"
    stroke-linejoin="round" stroke-miterlimit="10" stroke-opacity="" stroke-width="15"
    style="stroke-width:15;stroke-linecap:round;stroke-linejoin:round;stroke-miterlimit:10;stroke-dasharray:none;stroke-opacity:1"
    transform="translate(304.767 207)"></path>
  <path
    class=""
    d="M0 0c-1.733 0-3.466.447-5.021 1.341l-96.485 55.502a10.07 10.07 0 0 1-1.355-5.044V-49.962c0-3.603 1.925-6.931 5.048-8.727l92.792-53.379A10.076 10.076 0 0 1 0-113.408z"
    data-original="#A6A6A6" fill="none" stroke="#9A044C" stroke-dasharray="none" stroke-linecap="round"
    stroke-linejoin="round" stroke-miterlimit="10" stroke-opacity="" stroke-width="15"
    style="stroke-width:15;stroke-linecap:round;stroke-linejoin:round;stroke-miterlimit:10;stroke-dasharray:none;stroke-opacity:1"
    transform="translate(203.5 389.278)"></path>
  <path
    class=""
    d="m0 0 92.792 53.378a10.07 10.07 0 0 1 5.048 8.728v101.761c0 1.803-.482 3.536-1.355 5.044C-8.023 108.794-1.184 112.068-5.021 112.068V-1.34C-3.288-1.34-1.554-.894 0 0z"
    data-original="#A6A6A6" fill="none" stroke="#9A044C" stroke-dasharray="none" stroke-linecap="round"
    stroke-linejoin="round" stroke-miterlimit="10" stroke-opacity="" stroke-width="15"
    style="stroke-width:15;stroke-linecap:round;stroke-linejoin:round;stroke-miterlimit:10;stroke-dasharray:none;stroke-opacity:1"
    transform="translate(208.52 277.21)"></path>
  <path class=""
        d="M0 0h13.93"
        data-original="#A6A6A6" fill="none" stroke="#9A044C" stroke-dasharray="none" stroke-linecap="round"
        stroke-linejoin="round" stroke-miterlimit="10" stroke-opacity="" stroke-width="15"
        style="stroke-width:15;stroke-linecap:round;stroke-linejoin:round;stroke-miterlimit:10;stroke-dasharray:none;stroke-opacity:1"
        transform="translate(354.582 435.568)"></path>
  <path class=""
        d="M0 0h13.93"
        data-original="#A6A6A6" fill="none" stroke="#9A044C" stroke-dasharray="none" stroke-linecap="round"
        stroke-linejoin="round" stroke-miterlimit="10" stroke-opacity="" stroke-width="15"
        style="stroke-width:15;stroke-linecap:round;stroke-linejoin:round;stroke-miterlimit:10;stroke-dasharray:none;stroke-opacity:1"
        transform="translate(397.443 435.568)"></path>
  <path
    class=""
    d="M0 0h-16.589v-228.499c0-10.635-8.717-19.287-19.287-19.287h-354.581c-10.652 0-19.287 8.636-19.287 19.287V0h-16.589c-10.757 0-19.478-8.721-19.478-19.478v-260.231H19.478v260.231C19.478-8.721 10.757 0 0 0Z"
    data-original="#A6A6A6" fill="none" stroke="#A6A6A6" stroke-dasharray="636, 35, 400, 0" stroke-dashoffset="0"
    stroke-linecap="round" stroke-linejoin="round" stroke-miterlimit="10" stroke-opacity=""
    stroke-width="15"
    style="stroke-width:15;stroke-linecap:round;stroke-linejoin:round;stroke-miterlimit:10;stroke-dasharray:636, 35, 400, 0;stroke-dashoffset:0;stroke-opacity:1"
    transform="translate(469.166 426.278)"></path>
  <path
    class=""
    d="m0 0-.008-.013 96.485-55.502a10.068 10.068 0 0 1 10.041 0L203.003-.013c-.815 1.428-2.163 2.804-3.693 3.684l-92.792 53.378c-2.993 1.722-6.928 1.79-10.041 0L3.685 3.671A10.059 10.059 0 0 1 0 0Z"
    data-original="#A6A6A6" fill="none" stroke="#9A044C" stroke-dasharray="365, 35, 400, 0" stroke-dashoffset="0"
    stroke-linecap="round" stroke-linejoin="round" stroke-miterlimit="10" stroke-opacity=""
    stroke-width="15"
    style="stroke-width:15;stroke-linecap:round;stroke-linejoin:round;stroke-miterlimit:10;stroke-dasharray:365, 35, 400, 0;stroke-dashoffset:0;stroke-opacity:1"
    transform="translate(102.002 446.134)"></path>
  <path
    class=""
    d="M0 0c-1.733 0-3.466.447-5.021 1.341l-96.485 55.502a10.07 10.07 0 0 1-1.355-5.044V-49.962c0-3.603 1.925-6.931 5.048-8.727l92.792-53.379A10.076 10.076 0 0 1 0-113.408z"
    data-original="#A6A6A6" fill="none" stroke="#9A044C" stroke-dasharray="none" stroke-linecap="round"
    stroke-linejoin="round" stroke-miterlimit="10" stroke-opacity="" stroke-width="15"
    style="stroke-width:15;stroke-linecap:round;stroke-linejoin:round;stroke-miterlimit:10;stroke-dasharray:none;stroke-opacity:1"
    transform="translate(203.5 389.278)"></path>
  <path
    class=""
    d="m0 0 92.792 53.378a10.07 10.07 0 0 1 5.048 8.728v101.761c0 1.803-.482 3.536-1.355 5.044C-8.023 108.794-1.184 112.068-5.021 112.068V-1.34C-3.288-1.34-1.554-.894 0 0z"
    data-original="#A6A6A6" fill="none" stroke="#9A044C" stroke-dasharray="none" stroke-linecap="round"
    stroke-linejoin="round" stroke-miterlimit="10" stroke-opacity="" stroke-width="15"
    style="stroke-width:15;stroke-linecap:round;stroke-linejoin:round;stroke-miterlimit:10;stroke-dasharray:none;stroke-opacity:1"
    transform="translate(208.52 277.21)"></path>
  <path
    class=""
    d="M0 0h-157.523l25.545-14.695c1.531-.88 2.878-2.256 3.694-3.683L-224.77-73.88a10.068 10.068 0 0 0-10.041 0l-96.485 55.502a10.051 10.051 0 0 0 3.693 3.683L-302.057 0h-52.523c-10.652 0-19.288-8.635-19.288-19.288v-247.433c0-10.652 8.636-19.287 19.288-19.287H0c10.638 0 19.288 8.7 19.288 19.287v247.433C19.288-8.635 10.652 0 0 0Z"
    data-original="#A6A6A6" fill="none" stroke="#9A044C" stroke-dasharray="none" stroke-linecap="round"
    stroke-linejoin="round" stroke-miterlimit="10" stroke-opacity="" stroke-width="15"
    style="stroke-width:15;stroke-linecap:round;stroke-linejoin:round;stroke-miterlimit:10;stroke-dasharray:none;stroke-opacity:1"
    transform="translate(433.29 464.5)"></path>
  <path
    class=""
    d="M0 0v-67.32a10.07 10.07 0 0 0-5.048-8.728l-92.792-53.378a10.064 10.064 0 0 0-10.041 0l-92.792 53.378a10.07 10.07 0 0 0-5.049 8.728V0h-41.216v-208.857c0-10.652 8.635-19.288 19.287-19.288h354.58c10.653 0 19.288 8.636 19.288 19.288V0z"
    data-original="#A6A6A6" fill="none" stroke="#9A044C" stroke-dasharray="none" stroke-linecap="round"
    stroke-linejoin="round" stroke-miterlimit="10" stroke-opacity="" stroke-width="15"
    style="stroke-width:15;stroke-linecap:round;stroke-linejoin:round;stroke-miterlimit:10;stroke-dasharray:none;stroke-opacity:1"
    transform="translate(306.36 406.637)"></path>
  <path class=""
        d="m0 0-8.193 57.352h-127.535L-143.921 0Z"
        data-original="#A6A6A6" fill="none" stroke="#A6A6A6" stroke-dasharray="none" stroke-linecap="round"
        stroke-linejoin="round" stroke-miterlimit="10" stroke-opacity="" stroke-width="15"
        style="stroke-width:15;stroke-linecap:round;stroke-linejoin:round;stroke-miterlimit:10;stroke-dasharray:none;stroke-opacity:1"
        transform="translate(327.96 45.374)"></path>
  <path class=""
        d="M0 0c10.57 0 19.288 8.651 19.288 19.287v208.858H-90.29V0Z"
        data-original="#A6A6A6" fill="none" stroke="#9A044C" stroke-dasharray="none" stroke-linecap="round"
        stroke-linejoin="round" stroke-miterlimit="10" stroke-opacity="" stroke-width="15"
        style="stroke-width:15;stroke-linecap:round;stroke-linejoin:round;stroke-miterlimit:10;stroke-dasharray:none;stroke-opacity:1"
        transform="translate(433.29 178.492)"></path></g></g></svg>
